<svg width="667" height="503" viewBox="0 0 667 503" fill="none" xmlns="http://www.w3.org/2000/svg">
<path d="M584.667 251.333C584.667 390.141 472.141 502.667 333.333 502.667C194.527 502.667 82.0005 390.141 82.0005 251.333C82.0005 112.527 194.527 5.03063e-05 333.333 5.03063e-05C472.141 5.03063e-05 584.667 112.527 584.667 251.333Z" fill="#043086"/>
<path d="M89.2 324.733L24.1068 286.72L24.0984 286.715C23.2964 286.859 22.4745 286.94 21.6349 286.94C21.4271 286.94 21.2188 286.935 21.0093 286.925C15.2697 286.645 10.537 282.865 8.75625 277.752L8.74688 277.747L0 272.64V78.04L96.4803 136.373L107.185 141.543C91.0484 174.716 82.0005 211.963 82.0005 251.333C82.0005 275.233 85.338 298.36 91.5697 320.261L89.2 324.733ZM578.503 306.899C582.539 289.021 584.667 270.429 584.667 251.333C584.667 243.717 584.328 236.185 583.665 228.743L600.595 222.548L594.464 206.185L565.387 128.584L579.08 123.547L666.667 81.6134V266.32L578.503 306.899Z" fill="#149CFC" fill-opacity="0.5"/>
<path d="M313.671 412.496C310.304 412.496 307.155 411.613 304.865 410.744C304.72 410.693 304.587 410.652 304.437 410.599C303.343 410.201 302.376 409.733 301.503 409.225C301.336 409.135 301.219 409.068 301.219 409.068L301.225 409.061C300.733 408.763 300.264 408.456 299.84 408.133C294.808 404.32 294.273 399.109 294.273 399.109C293.944 399.264 290.648 400.413 286.255 400.413C282.528 400.413 278.012 399.587 273.844 396.624C273.249 396.2 272.704 395.777 272.2 395.347C265.108 389.337 266.575 383.116 266.575 383.116C266.575 383.116 260.961 385.987 254.329 385.987C252.939 385.987 251.503 385.861 250.064 385.555C241.931 383.827 236.904 375.591 238.82 367.5C239.276 365.573 239.876 363.391 240.659 361.083C239.205 362.463 237.187 363.491 234.793 363.815C234.271 363.885 233.729 363.923 233.173 363.923C231.279 363.923 229.204 363.492 227.039 362.487C217.968 358.283 209.436 341.784 216.241 336.961C216.241 336.961 217.161 336.041 219.273 335.843C221.527 338.752 224.257 341.197 227.039 342.487C229.204 343.492 231.279 343.923 233.173 343.923C233.729 343.923 234.271 343.885 234.793 343.815C237.179 343.492 239.199 342.475 240.651 341.103C239.872 343.403 239.275 345.579 238.82 347.5C236.904 355.591 241.931 363.827 250.064 365.556C251.503 365.861 252.937 365.987 254.329 365.987C260.96 365.987 266.575 363.116 266.575 363.116L272.617 349.519L266.575 363.116C266.575 363.116 266.448 363.651 266.448 364.556C266.449 366.743 267.185 371.097 272.2 375.345C272.704 375.777 273.249 376.2 273.844 376.624C278.012 379.587 282.528 380.413 286.255 380.413C290.648 380.413 293.944 379.264 294.273 379.109C294.273 379.109 294.808 384.32 299.84 388.133C301.077 389.073 302.593 389.931 304.437 390.599C304.599 390.657 304.759 390.713 304.916 390.769C307.2 391.631 310.327 392.496 313.664 392.496C316.296 392.496 319.057 391.959 321.644 390.457C327.119 387.279 331.609 384.56 334.324 382.895C340.416 385.783 346.164 387.415 353.096 387.415C353.211 387.415 353.325 387.415 353.44 387.413C358.799 387.373 362.251 384.841 364.452 381.869C364.452 381.869 364.453 381.869 364.453 381.871C367.535 377.721 368.171 372.728 368.192 372.551C368.341 372.668 371.776 375.355 374.827 376.307C376.045 376.693 378.365 377.247 381.183 377.247C385.548 377.247 391.108 375.919 395.613 370.587C396.387 369.667 397.027 368.773 397.573 367.893C400.303 363.488 400.415 359.552 400.027 357.019C399.757 355.255 399.247 354.171 399.203 354.077L399.2 354.073V354.067C400.18 354.389 401.728 354.597 403.603 354.597C410.103 354.597 420.527 352.097 424.808 343.229C426.549 347.369 428.475 354.657 425.187 362.395L425.081 362.643C420.981 371.989 410.227 374.601 403.587 374.601C401.719 374.601 400.176 374.395 399.199 374.072L399.203 374.077C399.309 374.304 402.193 380.425 397.571 387.896C397.031 388.775 396.388 389.673 395.619 390.581C391.111 395.92 385.547 397.247 381.179 397.247C378.364 397.247 376.044 396.696 374.824 396.312C371.708 395.332 368.192 392.545 368.192 392.545C368.192 392.545 367.591 397.645 364.453 401.871C362.252 404.836 358.801 407.371 353.437 407.412C353.321 407.413 353.205 407.413 353.089 407.413C346.175 407.413 340.428 405.765 334.341 402.883C331.631 404.547 327.139 407.267 321.644 410.457C319.057 411.959 316.299 412.496 313.671 412.496V412.496ZM439.253 344.799C435.532 344.799 431.059 343.755 425.687 341.116C425.935 340.419 426.141 339.727 426.307 339.04C426.776 337.148 426.969 335.309 426.969 333.567C426.968 326.015 423.352 320.267 423.027 319.747L423 319.707C429.584 323.391 434.923 324.8 439.248 324.8C446.539 324.8 450.951 320.795 453.587 316.92C453.963 316.368 454.296 315.779 454.592 315.163L456.065 318.468L456.075 318.477C456.515 319.472 456.769 320.543 456.821 321.631L456.833 321.837C456.928 325.205 456.707 332.339 453.588 336.923C450.951 340.796 446.541 344.799 439.253 344.799V344.799ZM243.047 335.064C242.992 334.595 242.913 334.127 242.808 333.66C243.036 333.848 243.252 334.025 243.456 334.193C243.316 334.484 243.18 334.773 243.047 335.064ZM217.195 332.804C208.707 325.979 200.236 319.281 194.815 315.283L183.519 309.872L166.795 301.86L161.799 312.755L125.679 296.353L108.398 288.509L91.5697 320.261C85.338 298.36 82.0005 275.233 82.0005 251.333C82.0005 211.963 91.0484 174.716 107.185 141.543L144.355 159.492L120.323 203.033L90.6803 245.4L95.6297 247.771L89.0344 259.719L125.678 276.353L161.799 292.755L166.795 281.86L183.519 289.872L194.815 295.283C198.419 297.941 203.371 301.792 208.78 306.081C212.711 309.2 216.881 312.549 220.952 315.839C220.649 315.813 220.364 315.801 220.093 315.801C217.397 315.801 216.241 316.961 216.241 316.961C212.219 319.813 213.556 326.744 217.195 332.804ZM568.027 311.72L552.44 273.813L552.437 273.808L537.077 279.051L496.944 292.749L493.177 281.845L480.507 286.479C480.261 286.769 480.011 287.053 479.761 287.339C479.452 287.691 479.127 288.025 478.812 288.371C478.404 288.819 478 289.267 477.584 289.704C477.116 290.195 476.64 290.671 476.163 291.148C475.765 291.545 475.372 291.947 474.969 292.335C474.455 292.832 473.937 293.309 473.417 293.788C473.043 294.135 472.672 294.487 472.296 294.823C471.74 295.321 471.185 295.797 470.629 296.276C470.287 296.571 469.944 296.873 469.603 297.16C469.012 297.657 468.429 298.127 467.845 298.597C467.543 298.841 467.239 299.096 466.939 299.333C466.316 299.827 465.709 300.289 465.101 300.752C464.852 300.941 464.596 301.145 464.349 301.329C463.683 301.829 463.041 302.296 462.405 302.756C462.233 302.88 462.052 303.016 461.883 303.137C461.087 303.707 460.316 304.245 459.585 304.745C458.539 305.463 457.567 306.108 456.693 306.673C456.865 304.768 456.873 303.056 456.84 301.84L456.827 301.627C456.773 300.547 456.52 299.467 456.08 298.48L456.067 298.467L454.961 295.991L452.072 289.508C452.072 289.508 455.151 287.787 459.585 284.745C464.289 281.529 470.511 276.835 476.187 271.149C477.608 269.727 478.995 268.241 480.316 266.703C480.38 266.628 480.443 266.553 480.507 266.479L493.177 261.845L496.944 272.749L537.077 259.051L572.573 246.935L567.309 234.725L583.665 228.743C584.328 236.185 584.667 243.717 584.667 251.333C584.667 270.429 582.539 289.021 578.503 306.899L568.027 311.72" fill="#0474FA"/>
<path d="M301.219 389.068C301.219 389.068 312.528 395.749 321.644 390.457C330.76 385.164 337.149 381.145 337.149 381.145L317.117 369.395L301.219 389.068" fill="#FAB29A"/>
<path d="M313.664 392.496C310.327 392.496 307.2 391.631 304.916 390.769C308.235 391.932 310.783 392.376 312.78 392.376C316.181 392.376 317.984 391.087 319.267 389.871C319.267 389.871 321.489 383.096 323.319 376.821C323.832 377.132 324.34 377.435 324.84 377.733C326.733 378.853 328.533 379.893 330.293 380.84C331.664 381.581 333.001 382.268 334.324 382.895C331.609 384.56 327.119 387.279 321.644 390.457C319.057 391.959 316.296 392.496 313.664 392.496" fill="#E18971"/>
<path d="M453.587 316.92C449.387 323.093 440.68 329.6 423 319.707L423.027 319.747C423.427 320.387 428.813 328.947 426.307 339.04C426.04 340.147 425.667 341.267 425.187 342.4L425.08 342.64C419.827 354.627 403.653 355.533 399.2 354.067V354.08C399.307 354.307 402.2 360.427 397.573 367.893C397.027 368.773 396.387 369.667 395.613 370.587C388.2 379.36 377.933 377.293 374.827 376.307C371.707 375.333 368.187 372.547 368.187 372.547C368.187 372.547 367.587 377.64 364.453 381.867C362.253 384.84 358.8 387.373 353.44 387.413C344.84 387.48 338.08 385.053 330.293 380.84C328.533 379.893 326.733 378.853 324.84 377.733C322.4 376.28 319.813 374.693 317.027 372.987C302.453 364.067 245.747 336.08 245.747 336.08C245.747 336.08 235.267 327.413 223.293 317.733C212.973 309.373 201.547 300.24 194.813 295.28L183.52 289.867L150.56 274.08L135.093 266.667L90.6803 245.4L151.747 158.12L181.853 171.28L219.613 187.773L242.053 197.587L293.213 185.733L305.467 182.853L346.48 208.853L448.013 273.24L452.067 289.507L456.067 298.467L456.08 298.48C456.52 299.467 456.773 300.547 456.827 301.627L456.84 301.84C456.933 305.2 456.707 312.333 453.587 316.92" fill="#875C50"/>
<path d="M208.78 306.081C203.371 301.792 198.419 297.941 194.815 295.283L183.519 289.872L183.521 289.867L194.813 295.28C198.42 297.936 203.372 301.791 208.78 306.081" fill="#115579"/>
<path d="M324.839 377.731C324.339 377.433 323.832 377.129 323.32 376.82V376.819C323.832 377.127 324.339 377.429 324.839 377.727V377.731ZM247.151 327.848C239.959 321.711 233.128 319.22 228.085 318.264C225.1 316.64 222.752 315.993 220.963 315.839C216.888 312.549 212.713 309.199 208.78 306.081C203.372 301.791 198.42 297.936 194.813 295.28L183.521 289.867L188.284 276.393L207.413 285.421C207.413 285.421 231.101 305.376 253.4 323.255C250.997 324.172 248.825 325.697 247.151 327.848" fill="#673E34"/>
<path d="M183.519 289.872L166.795 281.86L183.519 289.872Z" fill="#115579"/>
<path d="M188.284 276.393L172.679 269.028L211.548 184.253L219.609 187.776L188.284 276.393" fill="#673E34"/>
<path d="M183.519 289.872L166.795 281.86L166.796 281.856L183.52 289.867H183.521L183.519 289.872" fill="#0D3A4F"/>
<path d="M183.521 289.867H183.52L166.796 281.856L172.679 269.028L188.284 276.393L183.521 289.867" fill="#4F2A22"/>
<path d="M454.961 295.991L452.067 289.507L452.065 289.499L452.072 289.508L454.961 295.991Z" fill="#115579"/>
<path d="M456.821 301.629C454.329 298.301 450.411 294.284 444.277 290.159C433.023 282.591 380.181 253.157 353.095 238.159C336.552 231.181 322.903 226.213 318.444 226.213C317.96 226.213 317.584 226.272 317.324 226.393C310.659 229.511 294.705 255.712 275.815 257.305C274.852 257.387 273.925 257.425 273.029 257.425C264.293 257.425 258.675 253.768 255.307 250.283C257.064 250.653 259.136 250.911 261.459 250.911C261.503 250.911 261.548 250.911 261.592 250.911C262.737 250.905 263.941 250.833 265.203 250.679C275.215 249.481 288.549 243.157 301.356 222.927C301.731 222.331 302.171 221.777 302.66 221.283C302.844 221.096 303.039 220.92 303.236 220.749L303.363 220.64C303.563 220.473 303.767 220.313 303.979 220.163L304.035 220.125C304.237 219.984 304.445 219.851 304.659 219.725L304.775 219.656C305.012 219.52 305.255 219.392 305.505 219.276C305.513 219.272 305.523 219.268 305.532 219.263C305.671 219.197 305.812 219.135 305.956 219.076C306.123 219.008 306.291 218.944 306.461 218.884L307.417 218.555L324.152 212.78C324.341 212.716 324.529 212.659 324.719 212.605L324.873 212.567C325.005 212.532 325.139 212.499 325.272 212.469C325.964 212.319 326.667 212.244 327.368 212.244C329.133 212.244 330.887 212.717 332.436 213.645L390.581 248.501L398.965 253.525L426.392 269.969L440.876 278.652C444.26 280.676 447.241 283.313 449.668 286.424L452.065 289.499L452.067 289.507L454.961 295.991L456.065 298.469L456.075 298.477C456.515 299.472 456.769 300.543 456.821 301.629Z" fill="#673E34"/>
<path d="M426.307 339.04C415.653 331.56 397.733 319.36 388.587 313.093C373.6 302.827 375.467 289.867 375.467 289.867L423 319.707L423.027 319.747C423.352 320.267 426.968 326.015 426.969 333.567C426.969 335.309 426.776 337.148 426.307 339.04Z" fill="#673E34"/>
<path d="M400.027 357.019C399.756 355.257 399.244 354.173 399.2 354.08V354.073L399.203 354.077C399.247 354.171 399.757 355.255 400.027 357.019Z" fill="#115579"/>
<path d="M397.571 367.896C389.992 362.785 377.569 354.396 370.009 349.259C358.548 341.473 358.048 326.503 358.048 326.503L399.199 354.072L399.2 354.073V354.08C399.244 354.173 399.756 355.257 400.027 357.019C400.412 359.553 400.297 363.489 397.571 367.896" fill="#673E34"/>
<path d="M364.453 381.871C364.453 381.869 364.452 381.869 364.452 381.869C364.452 381.868 364.452 381.868 364.453 381.867C367.587 377.64 368.187 372.547 368.187 372.547C368.187 372.547 368.188 372.548 368.192 372.551C368.171 372.728 367.535 377.721 364.453 381.871Z" fill="#115579"/>
<path d="M364.452 381.869C357.887 377.961 348.347 372.068 342.301 367.371C332.335 359.625 332.849 351.561 332.849 351.561L368.192 372.545C368.192 372.545 368.192 372.548 368.192 372.551C368.188 372.548 368.187 372.547 368.187 372.547C368.187 372.547 367.587 377.64 364.453 381.867C364.452 381.868 364.452 381.868 364.452 381.869" fill="#673E34"/>
<path d="M600.595 222.548L515.201 253.789L480.507 266.479C480.261 266.769 480.011 267.053 479.761 267.339C473.264 274.741 465.303 280.835 459.585 284.745C455.151 287.787 452.072 289.508 452.072 289.508L449.668 286.424C447.241 283.313 444.26 280.676 440.876 278.652L426.392 269.969L398.965 253.525L393.859 250.464L390.581 248.501L332.436 213.645C330.289 212.359 327.756 211.947 325.341 212.452C324.94 212.536 324.547 212.647 324.152 212.78L307.417 218.555L306.461 218.884C306.136 218.997 305.813 219.128 305.505 219.276C304.441 219.768 303.481 220.452 302.66 221.283C302.171 221.777 301.731 222.331 301.356 222.927C288.549 243.157 275.215 249.481 265.203 250.679C263.941 250.833 262.737 250.905 261.592 250.911C258.972 250.921 256.664 250.604 254.764 250.164C250.652 249.211 248.377 244.793 249.944 240.872L268.131 201.092C269.721 197.113 272.653 193.821 276.419 191.785L325.741 165.105C328.965 163.36 332.643 162.623 336.289 162.989L421.547 171.572L448.019 161.787L482.553 149.031L562.041 119.656L594.464 206.185L600.595 222.548" fill="#FAB29A"/>
<path d="M213.925 179.068L161.799 292.755L125.678 276.353L89.0344 259.719L150.431 148.485L175.948 160.777L213.925 179.068" fill="white"/>
<path d="M330.289 380.837C328.536 379.889 326.729 378.849 324.839 377.727L324.184 374.68C324.184 374.68 324.113 374.627 323.977 374.523C324.611 372.264 325.143 370.203 325.437 368.717C325.669 367.553 324.892 365.404 323.357 363.241C326.14 365.217 328.784 367.855 329.639 371.073C330.715 375.132 330.62 378.531 330.289 380.837" fill="#673E34"/>
<path d="M324.839 377.727C324.339 377.429 323.832 377.127 323.32 376.819C323.547 376.041 323.768 375.271 323.977 374.523C324.113 374.627 324.184 374.68 324.184 374.68L324.839 377.727Z" fill="#4F2A22"/>
<path d="M303.883 359.923C303.785 359.855 303.685 359.785 303.588 359.717L305.199 356.364C306.964 351.167 306.839 345.156 303.877 340.419C306.448 342.008 313.183 347.044 315.079 357.099C314.832 357.032 314.583 356.972 314.329 356.921C313.629 356.78 312.907 356.703 312.164 356.703C309.597 356.703 306.795 357.616 303.883 359.923" fill="#673E34"/>
<path d="M303.232 360.46L303.588 359.717C303.685 359.785 303.785 359.855 303.883 359.923C303.667 360.093 303.449 360.273 303.232 360.46Z" fill="#4F2A22"/>
<path d="M276.512 341.285C276.273 341.108 276.032 340.927 275.789 340.745C276.084 332.777 272.488 327.311 267.605 324.477C270.913 325.351 277.265 327.907 282.365 335.215C279.548 337.132 277.563 339.705 276.512 341.285" fill="#673E34"/>
<path d="M272.619 349.516L275.643 342.713C275.717 342.041 275.767 341.385 275.789 340.745C276.032 340.927 276.273 341.108 276.512 341.285C275.937 342.148 275.643 342.713 275.643 342.713L272.619 349.516Z" fill="#4F2A22"/>
<path d="M243.456 334.193C243.252 334.025 243.036 333.848 242.808 333.66C242.807 333.659 242.807 333.657 242.807 333.656C243.036 333.844 243.253 334.023 243.457 334.192C243.457 334.193 243.457 334.193 243.456 334.193" fill="#0D3A4F"/>
<path d="M243.457 334.192C243.253 334.023 243.036 333.844 242.807 333.656C242.432 332.003 241.724 330.355 240.616 328.703C238.488 325.517 234.88 322.308 229.332 318.979C228.905 318.721 228.489 318.484 228.085 318.264C233.128 319.22 239.959 321.711 247.151 327.848C246.885 328.191 246.631 328.549 246.391 328.923C245.285 330.645 244.312 332.419 243.457 334.192" fill="#4F2A22"/>
<path d="M234.793 343.815C232.488 344.125 229.84 343.787 227.039 342.487C217.968 338.284 209.436 321.784 216.241 316.961C216.241 316.961 219.884 313.303 229.332 318.979C234.88 322.308 238.488 325.517 240.616 328.703C242.115 330.936 242.88 333.16 243.081 335.405C243.412 339.161 239.955 343.117 234.793 343.815" fill="#FAB29A"/>
<path d="M234.793 343.815C236.245 338.001 238.975 332.02 240.616 328.703C242.039 330.824 242.801 332.935 243.047 335.064C242.101 337.113 241.311 339.153 240.651 341.103C239.199 342.475 237.179 343.492 234.793 343.815Z" fill="#E18971"/>
<path d="M250.064 365.556C241.931 363.827 236.904 355.591 238.82 347.5C240.047 342.313 242.313 335.275 246.391 328.923C254.445 316.373 277.996 321.684 275.643 342.713L266.575 363.116C266.575 363.116 258.359 367.317 250.064 365.556" fill="#FAB29A"/>
<path d="M305.199 356.364L294.273 379.109C293.664 379.393 282.927 383.08 273.844 376.624C273.249 376.2 272.704 375.777 272.2 375.345C265.108 369.337 266.575 363.116 266.575 363.116L275.643 342.713C275.643 342.713 282.148 330.249 293.439 333.139C293.671 333.195 293.907 333.259 294.143 333.332C305.863 336.933 308.12 347.763 305.199 356.364" fill="#FAB29A"/>
<path d="M325.437 368.717C324.256 374.664 319.267 389.871 319.267 389.871C317.195 391.835 313.772 393.988 304.437 390.599C302.593 389.931 301.077 389.073 299.84 388.133C294.808 384.32 294.273 379.109 294.273 379.109L303.228 360.463C307.223 357.028 311.031 356.255 314.329 356.921C321.271 358.321 325.965 366.071 325.437 368.717" fill="#FAB29A"/>
<path d="M272.2 375.345C267.185 371.097 266.449 366.743 266.448 364.556C266.448 363.651 266.575 363.116 266.575 363.116L275.643 342.713C275.643 342.713 280.868 332.704 290.077 332.704C291.145 332.704 292.265 332.839 293.439 333.139C290.225 335.521 284.247 341.12 280.187 351.917C277.153 359.981 274.263 368.787 272.2 375.345" fill="#E18971"/>
<path d="M299.84 388.133C294.808 384.32 294.273 379.109 294.273 379.109L303.228 360.463C306.375 357.757 309.407 356.703 312.164 356.703C312.907 356.703 313.629 356.78 314.329 356.921C312.185 358.776 309.004 362.649 306.016 370.553C303.52 377.165 301.384 383.436 299.84 388.133" fill="#E18971"/>
<path d="M476.187 271.149C477.411 269.924 478.609 268.652 479.761 267.339C479.947 267.128 480.132 266.916 480.316 266.703C478.995 268.241 477.608 269.727 476.187 271.149Z" fill="#146187"/>
<path d="M398.965 253.525L390.581 248.501L332.436 213.645C330.887 212.717 329.133 212.244 327.368 212.244C326.667 212.244 325.964 212.319 325.272 212.469C325.139 212.499 325.005 212.532 324.873 212.567L324.719 212.605C324.529 212.659 324.341 212.716 324.152 212.78L307.417 218.555L306.461 218.884C306.291 218.944 306.123 219.008 305.956 219.076C305.812 219.135 305.671 219.197 305.532 219.263C305.833 219.12 306.145 218.993 306.461 218.884L307.417 218.555L324.152 212.78C324.547 212.647 324.94 212.536 325.341 212.452C326.011 212.312 326.689 212.243 327.367 212.243C329.131 212.243 330.884 212.716 332.436 213.645L390.581 248.501L393.859 250.464L398.965 253.525V253.525ZM265.203 250.679C275.215 249.481 288.549 243.157 301.356 222.927C301.731 222.331 302.171 221.777 302.66 221.283C303.481 220.452 304.441 219.768 305.505 219.276C305.255 219.392 305.012 219.52 304.775 219.656L304.659 219.725C304.445 219.851 304.237 219.984 304.035 220.125L303.979 220.163C303.767 220.313 303.563 220.473 303.363 220.64L303.236 220.749C303.039 220.92 302.844 221.096 302.66 221.283C302.171 221.777 301.731 222.331 301.356 222.927C288.549 243.157 275.215 249.481 265.203 250.679" fill="#5C3026"/>
<path d="M452.072 289.508L452.065 289.499L449.668 286.424C447.241 283.313 444.26 280.676 440.876 278.652L426.392 269.969L398.965 253.525L393.859 250.464L390.581 248.501L332.436 213.645C330.884 212.716 329.131 212.243 327.367 212.243C326.689 212.243 326.011 212.312 325.341 212.452C324.94 212.536 324.547 212.647 324.152 212.78L307.417 218.555L306.461 218.884C306.145 218.993 305.833 219.12 305.532 219.263C305.523 219.268 305.513 219.272 305.505 219.276C304.441 219.768 303.481 220.452 302.66 221.283C302.171 221.777 301.731 222.331 301.356 222.927C288.549 243.157 275.215 249.481 265.203 250.679C270.225 248.263 276.651 244.556 284.008 238.931C301.405 225.629 302.721 204.259 302.721 204.259C302.721 204.259 323.532 197.488 328.719 197.488C328.768 197.488 328.816 197.489 328.863 197.489C331.823 197.568 372.116 222.073 405.675 242.968C413.364 238.181 421.368 229.552 426.253 214.028C426.253 214.028 427.644 234.263 411.793 246.784C421.296 252.721 429.988 258.199 436.785 262.529C441.207 261.527 446.921 259.676 452.524 256.259C454.459 255.079 462.245 252.045 473.888 247.807L479.761 267.339C478.609 268.652 477.411 269.924 476.187 271.149C470.509 276.835 464.288 281.528 459.585 284.745C455.151 287.787 452.072 289.508 452.072 289.508V289.508ZM567.308 234.725L560.033 217.851C571.532 213.939 583.157 210.001 594.464 206.185L600.595 222.548L567.308 234.725Z" fill="#E18971"/>
<path d="M480.316 266.703C480.38 266.628 480.443 266.553 480.507 266.479C480.443 266.553 480.38 266.628 480.316 266.703ZM480.507 266.479L493.177 261.844V261.845L480.507 266.479ZM473.888 247.807L448.019 161.787L457.411 158.317L486.733 243.193C482.073 244.849 477.765 246.395 473.888 247.807Z" fill="#E18971"/>
<path d="M479.761 267.339L473.888 247.807C477.765 246.395 482.073 244.849 486.733 243.193L493.177 261.844L480.507 266.479C480.443 266.553 480.38 266.628 480.316 266.703C480.132 266.916 479.947 267.128 479.761 267.339" fill="#CA6953"/>
<path d="M572.573 246.935L537.077 259.051L496.944 272.749L456.104 154.539L496.088 139.871L522.268 130.268L572.573 246.935" fill="white"/>
<path d="M537.077 259.051L496.088 139.871L522.268 130.268L572.573 246.935L537.077 259.051Z" fill="#B3B3B3"/>
<path d="M666.667 61.6134V246.32L568.027 291.72L552.44 253.813L547.56 241.947L540.413 224.547L528.947 196.653L526.04 189.573L505.827 140.427L504.347 136.84L502.28 131.8L579.08 103.547L666.667 61.6134Z" fill="black"/>
<path d="M125.678 276.353L89.0344 259.719L150.431 148.485L175.948 160.777L125.678 276.353" fill="#B3B3B3"/>
<path d="M170.173 151.96L167.627 156.76L164.053 163.507L140.92 207.147L137.347 213.907L114.586 256.84L108.4 268.507L89.2 304.733L24.1068 266.72L8.74688 257.747L0 252.64V58.04L96.4803 116.373L170.173 151.96Z" fill="black"/>
<path d="M35.3401 253.923C34.9735 261.471 28.5573 267.292 21.0093 266.925C13.462 266.559 7.64064 260.143 8.00782 252.595C8.37449 245.047 14.7907 239.225 22.338 239.592C29.886 239.96 35.7068 246.376 35.3401 253.923Z" fill="#333333"/>
<path d="M246.107 145.556C234.119 147.953 232.175 149.896 229.777 161.884C227.38 149.896 225.437 147.953 213.449 145.556C225.437 143.159 227.38 141.215 229.777 129.227C232.175 141.215 234.119 143.159 246.107 145.556Z" fill="white"/>
<path d="M274.329 158.667C267.724 159.987 266.653 161.057 265.333 167.663C264.013 161.057 262.943 159.987 256.337 158.667C262.943 157.347 264.013 156.276 265.333 149.671C266.653 156.276 267.724 157.347 274.329 158.667Z" fill="white"/>
<path d="M502.329 311.333C495.724 312.653 494.653 313.724 493.333 320.329C492.013 313.724 490.943 312.653 484.337 311.333C490.943 310.013 492.013 308.943 493.333 302.337C494.653 308.943 495.724 310.013 502.329 311.333Z" fill="white"/>
<path d="M455.663 128.667C450.527 129.693 449.693 130.527 448.667 135.663C447.64 130.527 446.807 129.693 441.671 128.667C446.807 127.64 447.64 126.807 448.667 121.671C449.693 126.807 450.527 127.64 455.663 128.667Z" fill="white"/>
<path d="M304.329 438.996C298.215 440.219 297.223 441.209 296 447.324C294.777 441.209 293.785 440.219 287.671 438.996C293.785 437.773 294.777 436.781 296 430.667C297.223 436.781 298.215 437.773 304.329 438.996Z" fill="white"/>
<path d="M356.329 442.329C344.34 444.727 342.397 446.669 340 458.657C337.603 446.669 335.66 444.727 323.671 442.329C335.66 439.932 337.603 437.988 340 426C342.397 437.988 344.34 439.932 356.329 442.329Z" fill="white"/>
<path d="M195.663 338C186.121 339.908 184.575 341.455 182.667 350.996C180.759 341.455 179.212 339.908 169.671 338C179.212 336.092 180.759 334.545 182.667 325.004C184.575 334.545 186.121 336.092 195.663 338Z" fill="white"/>
<path d="M430.107 139.556C420.565 141.464 419.019 143.011 417.111 152.551C415.203 143.011 413.656 141.464 404.116 139.556C413.656 137.648 415.203 136.101 417.111 126.56C419.019 136.101 420.565 137.648 430.107 139.556Z" fill="white"/>
<path d="M494.107 349.556C480.16 352.344 477.9 354.605 475.111 368.551C472.323 354.605 470.061 352.344 456.116 349.556C470.061 346.767 472.323 344.507 475.111 330.56C477.9 344.507 480.16 346.767 494.107 349.556Z" fill="white"/>
<path d="M353.217 112.667C337.64 115.781 335.115 118.307 332 133.884C328.885 118.307 326.36 115.781 310.783 112.667C326.36 109.552 328.885 107.027 332 91.4494C335.115 107.027 337.64 109.552 353.217 112.667Z" fill="white"/>
</svg>
